<svg width="1363" height="301" viewBox="0 0 1363 301" fill="none" xmlns="http://www.w3.org/2000/svg">
<rect width="1363" height="301" rx="15" fill="#F0F0F0"/>
<path d="M0 15C0 6.71573 6.71573 0 15 0H37V301H15C6.71573 301 0 294.284 0 286V15Z" fill="#FFCD00"/>
<path d="M104.998 104.898V144H95.5986V104.898H104.998ZM120.091 121.146V144H111.041V114.942H119.527L120.091 121.146ZM119.017 128.478L116.895 128.531C116.895 126.311 117.164 124.333 117.701 122.596C118.238 120.842 118.999 119.356 119.983 118.138C120.968 116.921 122.141 115.999 123.501 115.372C124.88 114.728 126.411 114.405 128.094 114.405C129.437 114.405 130.663 114.602 131.773 114.996C132.901 115.39 133.868 116.026 134.673 116.903C135.497 117.78 136.124 118.944 136.553 120.394C137.001 121.826 137.225 123.599 137.225 125.711V144H128.121V125.685C128.121 124.521 127.959 123.635 127.637 123.026C127.315 122.399 126.849 121.97 126.241 121.737C125.632 121.504 124.889 121.388 124.012 121.388C123.081 121.388 122.293 121.567 121.648 121.925C121.004 122.283 120.485 122.784 120.091 123.429C119.715 124.055 119.437 124.798 119.258 125.658C119.097 126.517 119.017 127.457 119.017 128.478ZM152.72 137.796L158.44 114.942H167.974L158.467 144H152.828L152.72 137.796ZM149.336 114.942L154.976 137.796L154.922 144H149.256L139.776 114.942H149.336ZM184.356 144.537C181.993 144.537 179.88 144.17 178.018 143.436C176.156 142.684 174.581 141.655 173.292 140.348C172.02 139.041 171.045 137.537 170.364 135.836C169.702 134.135 169.371 132.336 169.371 130.438V129.417C169.371 127.287 169.666 125.318 170.257 123.509C170.848 121.683 171.725 120.09 172.889 118.729C174.052 117.368 175.512 116.312 177.266 115.56C179.021 114.79 181.062 114.405 183.389 114.405C185.448 114.405 187.292 114.736 188.921 115.399C190.551 116.061 191.929 117.01 193.057 118.246C194.203 119.481 195.071 120.976 195.662 122.73C196.271 124.485 196.575 126.454 196.575 128.639V132.318H172.835V126.651H187.74V125.953C187.758 124.986 187.588 124.163 187.229 123.482C186.889 122.802 186.388 122.283 185.726 121.925C185.063 121.567 184.257 121.388 183.309 121.388C182.324 121.388 181.509 121.603 180.865 122.032C180.238 122.462 179.746 123.053 179.388 123.805C179.048 124.539 178.806 125.389 178.663 126.356C178.519 127.323 178.448 128.343 178.448 129.417V130.438C178.448 131.512 178.591 132.488 178.877 133.365C179.182 134.243 179.611 134.994 180.167 135.621C180.739 136.23 181.42 136.704 182.208 137.044C183.013 137.385 183.926 137.555 184.947 137.555C186.182 137.555 187.4 137.322 188.599 136.856C189.799 136.391 190.828 135.621 191.688 134.547L195.796 139.435C195.206 140.276 194.364 141.091 193.272 141.878C192.198 142.666 190.909 143.311 189.405 143.812C187.901 144.295 186.218 144.537 184.356 144.537ZM209.144 121.146V144H200.093V114.942H208.58L209.144 121.146ZM208.069 128.478L205.948 128.531C205.948 126.311 206.216 124.333 206.753 122.596C207.291 120.842 208.051 119.356 209.036 118.138C210.021 116.921 211.194 115.999 212.554 115.372C213.933 114.728 215.464 114.405 217.146 114.405C218.489 114.405 219.716 114.602 220.826 114.996C221.954 115.39 222.92 116.026 223.726 116.903C224.55 117.78 225.176 118.944 225.606 120.394C226.054 121.826 226.277 123.599 226.277 125.711V144H217.173V125.685C217.173 124.521 217.012 123.635 216.69 123.026C216.368 122.399 215.902 121.97 215.293 121.737C214.685 121.504 213.942 121.388 213.064 121.388C212.133 121.388 211.346 121.567 210.701 121.925C210.057 122.283 209.537 122.784 209.144 123.429C208.768 124.055 208.49 124.798 208.311 125.658C208.15 126.517 208.069 127.457 208.069 128.478ZM246.607 114.942V121.227H229.097V114.942H246.607ZM232.776 107.718H241.827V134.52C241.827 135.29 241.916 135.89 242.095 136.319C242.274 136.731 242.579 137.027 243.008 137.206C243.456 137.367 244.047 137.447 244.781 137.447C245.3 137.447 245.73 137.438 246.07 137.42C246.41 137.385 246.732 137.34 247.037 137.286V143.758C246.267 144.009 245.461 144.197 244.62 144.322C243.778 144.465 242.883 144.537 241.934 144.537C240 144.537 238.344 144.233 236.966 143.624C235.605 143.015 234.567 142.057 233.851 140.75C233.134 139.444 232.776 137.743 232.776 135.648V107.718ZM248.272 129.767V129.203C248.272 127.072 248.576 125.112 249.185 123.321C249.794 121.513 250.689 119.946 251.871 118.622C253.052 117.297 254.511 116.267 256.248 115.533C257.985 114.781 259.99 114.405 262.264 114.405C264.555 114.405 266.569 114.781 268.306 115.533C270.061 116.267 271.529 117.297 272.71 118.622C273.892 119.946 274.787 121.513 275.396 123.321C276.005 125.112 276.309 127.072 276.309 129.203V129.767C276.309 131.879 276.005 133.84 275.396 135.648C274.787 137.438 273.892 139.005 272.71 140.348C271.529 141.673 270.07 142.702 268.333 143.436C266.596 144.17 264.591 144.537 262.317 144.537C260.044 144.537 258.029 144.17 256.275 143.436C254.52 142.702 253.052 141.673 251.871 140.348C250.689 139.005 249.794 137.438 249.185 135.648C248.576 133.84 248.272 131.879 248.272 129.767ZM257.322 129.203V129.767C257.322 130.859 257.403 131.879 257.564 132.828C257.725 133.777 257.994 134.61 258.37 135.326C258.746 136.024 259.256 136.57 259.9 136.964C260.545 137.358 261.351 137.555 262.317 137.555C263.266 137.555 264.054 137.358 264.681 136.964C265.325 136.57 265.835 136.024 266.211 135.326C266.587 134.61 266.856 133.777 267.017 132.828C267.178 131.879 267.259 130.859 267.259 129.767V129.203C267.259 128.146 267.178 127.153 267.017 126.222C266.856 125.273 266.587 124.44 266.211 123.724C265.835 122.99 265.325 122.417 264.681 122.005C264.036 121.594 263.23 121.388 262.264 121.388C261.315 121.388 260.518 121.594 259.874 122.005C259.247 122.417 258.746 122.99 258.37 123.724C257.994 124.44 257.725 125.273 257.564 126.222C257.403 127.153 257.322 128.146 257.322 129.203ZM289.468 122.14V144H280.418V114.942H288.877L289.468 122.14ZM298.062 114.728L297.901 123.133C297.543 123.097 297.059 123.053 296.451 122.999C295.842 122.945 295.332 122.918 294.92 122.918C293.864 122.918 292.951 123.044 292.181 123.294C291.429 123.527 290.802 123.885 290.301 124.369C289.817 124.834 289.459 125.425 289.227 126.141C289.012 126.857 288.913 127.69 288.931 128.639L287.293 127.564C287.293 125.613 287.481 123.84 287.857 122.247C288.251 120.636 288.806 119.248 289.522 118.084C290.238 116.903 291.106 115.999 292.127 115.372C293.147 114.728 294.293 114.405 295.564 114.405C296.012 114.405 296.451 114.432 296.88 114.486C297.328 114.54 297.722 114.62 298.062 114.728ZM310.577 140.589L318.096 114.942H327.818L316.136 148.324C315.885 149.058 315.554 149.846 315.142 150.687C314.73 151.546 314.166 152.361 313.45 153.131C312.734 153.901 311.812 154.527 310.684 155.011C309.574 155.494 308.195 155.736 306.548 155.736C305.671 155.736 305.027 155.691 304.615 155.602C304.221 155.53 303.612 155.396 302.789 155.199V148.727C303.021 148.727 303.218 148.727 303.379 148.727C303.558 148.727 303.755 148.727 303.97 148.727C304.937 148.727 305.707 148.628 306.28 148.431C306.871 148.234 307.318 147.948 307.623 147.572C307.945 147.196 308.195 146.739 308.375 146.202L310.577 140.589ZM308.67 114.942L314.39 135.272L315.384 144.859H309.314L298.975 114.942H308.67ZM347.852 123.644V130.653H331.712V123.644H347.852ZM360.044 104.898H367.725L376.453 132.103L385.181 104.898H392.862L379.568 144H373.338L360.044 104.898ZM355.372 104.898H363.321L364.798 134.869V144H355.372V104.898ZM389.585 104.898H397.562V144H388.108V134.869L389.585 104.898ZM418.267 136.695V124.718C418.267 123.894 418.151 123.187 417.918 122.596C417.685 122.005 417.318 121.549 416.817 121.227C416.316 120.886 415.644 120.716 414.803 120.716C414.122 120.716 413.541 120.833 413.057 121.065C412.574 121.298 412.207 121.647 411.956 122.113C411.705 122.578 411.58 123.169 411.58 123.885H402.53C402.53 122.542 402.825 121.298 403.416 120.152C404.025 118.989 404.884 117.977 405.994 117.118C407.122 116.258 408.465 115.596 410.022 115.13C411.598 114.647 413.353 114.405 415.286 114.405C417.596 114.405 419.655 114.79 421.463 115.56C423.289 116.33 424.73 117.485 425.787 119.024C426.843 120.546 427.371 122.462 427.371 124.771V136.668C427.371 138.566 427.479 140.007 427.693 140.992C427.908 141.959 428.213 142.809 428.606 143.543V144H419.529C419.1 143.105 418.777 142.013 418.562 140.724C418.366 139.417 418.267 138.074 418.267 136.695ZM419.368 126.249L419.422 131.083H415.42C414.579 131.083 413.863 131.199 413.272 131.432C412.699 131.664 412.234 131.987 411.875 132.398C411.535 132.792 411.285 133.24 411.124 133.741C410.98 134.243 410.909 134.771 410.909 135.326C410.909 135.863 411.034 136.346 411.285 136.776C411.553 137.188 411.911 137.51 412.359 137.743C412.806 137.975 413.308 138.092 413.863 138.092C414.865 138.092 415.716 137.904 416.414 137.528C417.13 137.134 417.676 136.66 418.052 136.104C418.428 135.549 418.616 135.03 418.616 134.547L420.604 138.253C420.245 138.969 419.834 139.694 419.368 140.428C418.921 141.162 418.357 141.843 417.676 142.469C417.014 143.078 416.199 143.579 415.232 143.973C414.266 144.349 413.093 144.537 411.714 144.537C409.924 144.537 408.277 144.17 406.773 143.436C405.287 142.702 404.096 141.681 403.201 140.375C402.306 139.05 401.858 137.528 401.858 135.809C401.858 134.305 402.127 132.962 402.664 131.781C403.219 130.599 404.052 129.597 405.162 128.773C406.272 127.949 407.686 127.323 409.405 126.893C411.124 126.463 413.147 126.249 415.474 126.249H419.368ZM441.282 121.146V144H432.232V114.942H440.718L441.282 121.146ZM440.208 128.478L438.086 128.531C438.086 126.311 438.355 124.333 438.892 122.596C439.429 120.842 440.19 119.356 441.175 118.138C442.16 116.921 443.332 115.999 444.693 115.372C446.071 114.728 447.602 114.405 449.285 114.405C450.628 114.405 451.854 114.602 452.964 114.996C454.092 115.39 455.059 116.026 455.865 116.903C456.688 117.78 457.315 118.944 457.745 120.394C458.192 121.826 458.416 123.599 458.416 125.711V144H449.312V125.685C449.312 124.521 449.151 123.635 448.829 123.026C448.506 122.399 448.041 121.97 447.432 121.737C446.823 121.504 446.08 121.388 445.203 121.388C444.272 121.388 443.484 121.567 442.84 121.925C442.195 122.283 441.676 122.784 441.282 123.429C440.906 124.055 440.629 124.798 440.45 125.658C440.289 126.517 440.208 127.457 440.208 128.478ZM478.531 136.695V124.718C478.531 123.894 478.414 123.187 478.182 122.596C477.949 122.005 477.582 121.549 477.081 121.227C476.579 120.886 475.908 120.716 475.066 120.716C474.386 120.716 473.804 120.833 473.321 121.065C472.837 121.298 472.47 121.647 472.22 122.113C471.969 122.578 471.844 123.169 471.844 123.885H462.793C462.793 122.542 463.089 121.298 463.68 120.152C464.288 118.989 465.148 117.977 466.258 117.118C467.386 116.258 468.729 115.596 470.286 115.13C471.862 114.647 473.616 114.405 475.55 114.405C477.859 114.405 479.918 114.79 481.727 115.56C483.553 116.33 484.994 117.485 486.05 119.024C487.107 120.546 487.635 122.462 487.635 124.771V136.668C487.635 138.566 487.742 140.007 487.957 140.992C488.172 141.959 488.476 142.809 488.87 143.543V144H479.793C479.363 143.105 479.041 142.013 478.826 140.724C478.629 139.417 478.531 138.074 478.531 136.695ZM479.632 126.249L479.686 131.083H475.684C474.843 131.083 474.126 131.199 473.536 131.432C472.963 131.664 472.497 131.987 472.139 132.398C471.799 132.792 471.548 133.24 471.387 133.741C471.244 134.243 471.172 134.771 471.172 135.326C471.172 135.863 471.298 136.346 471.548 136.776C471.817 137.188 472.175 137.51 472.623 137.743C473.07 137.975 473.571 138.092 474.126 138.092C475.129 138.092 475.979 137.904 476.678 137.528C477.394 137.134 477.94 136.66 478.316 136.104C478.692 135.549 478.88 135.03 478.88 134.547L480.867 138.253C480.509 138.969 480.097 139.694 479.632 140.428C479.184 141.162 478.62 141.843 477.94 142.469C477.278 143.078 476.463 143.579 475.496 143.973C474.529 144.349 473.357 144.537 471.978 144.537C470.188 144.537 468.541 144.17 467.037 143.436C465.551 142.702 464.36 141.681 463.465 140.375C462.57 139.05 462.122 137.528 462.122 135.809C462.122 134.305 462.391 132.962 462.928 131.781C463.483 130.599 464.315 129.597 465.425 128.773C466.535 127.949 467.95 127.323 469.668 126.893C471.387 126.463 473.41 126.249 475.738 126.249H479.632ZM510.918 114.942H519.136V142.872C519.136 145.558 518.519 147.831 517.283 149.693C516.048 151.573 514.32 152.997 512.1 153.963C509.898 154.948 507.32 155.44 504.366 155.44C503.059 155.44 501.725 155.27 500.364 154.93C499.004 154.608 497.732 154.125 496.551 153.48C495.369 152.835 494.375 152.039 493.57 151.09L497.356 145.772C498.09 146.596 499.013 147.294 500.123 147.867C501.233 148.458 502.54 148.753 504.043 148.753C505.35 148.753 506.443 148.521 507.32 148.055C508.215 147.59 508.895 146.909 509.361 146.014C509.826 145.137 510.059 144.072 510.059 142.818V121.817L510.918 114.942ZM491.609 129.82V129.256C491.609 127.054 491.878 125.049 492.415 123.241C492.97 121.415 493.758 119.848 494.778 118.541C495.817 117.216 497.07 116.196 498.538 115.479C500.006 114.763 501.662 114.405 503.506 114.405C505.494 114.405 507.123 114.79 508.394 115.56C509.683 116.312 510.713 117.368 511.482 118.729C512.27 120.09 512.879 121.683 513.309 123.509C513.756 125.318 514.132 127.269 514.437 129.364V130.035C514.132 132.005 513.711 133.867 513.174 135.621C512.655 137.358 511.975 138.897 511.133 140.24C510.292 141.583 509.236 142.639 507.964 143.409C506.711 144.161 505.207 144.537 503.453 144.537C501.626 144.537 499.979 144.17 498.511 143.436C497.061 142.702 495.817 141.673 494.778 140.348C493.758 139.023 492.97 137.465 492.415 135.675C491.878 133.884 491.609 131.933 491.609 129.82ZM500.66 129.256V129.82C500.66 130.912 500.758 131.924 500.955 132.855C501.17 133.786 501.492 134.61 501.922 135.326C502.352 136.024 502.88 136.57 503.506 136.964C504.151 137.358 504.903 137.555 505.762 137.555C507.069 137.555 508.125 137.277 508.931 136.722C509.737 136.167 510.319 135.379 510.677 134.359C511.035 133.338 511.187 132.139 511.133 130.76V128.639C511.169 127.457 511.089 126.419 510.892 125.523C510.695 124.61 510.381 123.849 509.952 123.241C509.54 122.632 508.985 122.175 508.287 121.871C507.606 121.549 506.783 121.388 505.816 121.388C504.974 121.388 504.231 121.585 503.587 121.979C502.942 122.372 502.405 122.927 501.976 123.644C501.546 124.342 501.215 125.174 500.982 126.141C500.767 127.09 500.66 128.128 500.66 129.256ZM538.418 144.537C536.055 144.537 533.943 144.17 532.081 143.436C530.219 142.684 528.643 141.655 527.354 140.348C526.083 139.041 525.107 137.537 524.427 135.836C523.764 134.135 523.433 132.336 523.433 130.438V129.417C523.433 127.287 523.729 125.318 524.319 123.509C524.91 121.683 525.787 120.09 526.951 118.729C528.115 117.368 529.574 116.312 531.329 115.56C533.083 114.79 535.124 114.405 537.452 114.405C539.511 114.405 541.355 114.736 542.984 115.399C544.613 116.061 545.992 117.01 547.12 118.246C548.265 119.481 549.134 120.976 549.725 122.73C550.333 124.485 550.638 126.454 550.638 128.639V132.318H526.897V126.651H541.802V125.953C541.82 124.986 541.65 124.163 541.292 123.482C540.952 122.802 540.451 122.283 539.788 121.925C539.126 121.567 538.32 121.388 537.371 121.388C536.386 121.388 535.572 121.603 534.927 122.032C534.301 122.462 533.808 123.053 533.45 123.805C533.11 124.539 532.868 125.389 532.725 126.356C532.582 127.323 532.51 128.343 532.51 129.417V130.438C532.51 131.512 532.653 132.488 532.94 133.365C533.244 134.243 533.674 134.994 534.229 135.621C534.802 136.23 535.482 136.704 536.27 137.044C537.076 137.385 537.989 137.555 539.009 137.555C540.245 137.555 541.462 137.322 542.662 136.856C543.861 136.391 544.891 135.621 545.75 134.547L549.859 139.435C549.268 140.276 548.427 141.091 547.334 141.878C546.26 142.666 544.971 143.311 543.467 143.812C541.963 144.295 540.28 144.537 538.418 144.537ZM563.448 121.092V144H554.397V114.942H562.884L563.448 121.092ZM562.347 128.478L560.279 128.531C560.279 126.49 560.521 124.61 561.004 122.892C561.487 121.173 562.203 119.678 563.152 118.407C564.101 117.136 565.265 116.151 566.644 115.453C568.04 114.754 569.651 114.405 571.478 114.405C572.749 114.405 573.903 114.602 574.942 114.996C575.98 115.372 576.875 115.972 577.627 116.795C578.379 117.601 578.952 118.657 579.346 119.964C579.758 121.253 579.964 122.802 579.964 124.61V144H570.914V125.765C570.914 124.53 570.77 123.599 570.484 122.972C570.215 122.346 569.821 121.925 569.302 121.71C568.783 121.495 568.147 121.388 567.396 121.388C566.608 121.388 565.901 121.567 565.274 121.925C564.647 122.283 564.11 122.784 563.663 123.429C563.233 124.055 562.902 124.798 562.669 125.658C562.454 126.517 562.347 127.457 562.347 128.478ZM578.943 128.478L576.419 128.531C576.419 126.49 576.643 124.61 577.09 122.892C577.556 121.173 578.245 119.678 579.158 118.407C580.089 117.136 581.244 116.151 582.623 115.453C584.001 114.754 585.604 114.405 587.43 114.405C588.755 114.405 589.972 114.602 591.082 114.996C592.192 115.39 593.15 116.026 593.956 116.903C594.761 117.78 595.388 118.944 595.835 120.394C596.283 121.826 596.507 123.599 596.507 125.711V144H587.43V125.711C587.43 124.512 587.286 123.608 587 122.999C586.731 122.372 586.338 121.952 585.818 121.737C585.299 121.504 584.681 121.388 583.965 121.388C583.106 121.388 582.363 121.567 581.736 121.925C581.11 122.283 580.582 122.784 580.152 123.429C579.74 124.055 579.436 124.798 579.239 125.658C579.042 126.517 578.943 127.457 578.943 128.478ZM615.762 144.537C613.399 144.537 611.286 144.17 609.424 143.436C607.562 142.684 605.987 141.655 604.698 140.348C603.427 139.041 602.451 137.537 601.771 135.836C601.108 134.135 600.777 132.336 600.777 130.438V129.417C600.777 127.287 601.072 125.318 601.663 123.509C602.254 121.683 603.131 120.09 604.295 118.729C605.459 117.368 606.918 116.312 608.672 115.56C610.427 114.79 612.468 114.405 614.795 114.405C616.854 114.405 618.698 114.736 620.328 115.399C621.957 116.061 623.335 117.01 624.463 118.246C625.609 119.481 626.478 120.976 627.068 122.73C627.677 124.485 627.981 126.454 627.981 128.639V132.318H604.241V126.651H619.146V125.953C619.164 124.986 618.994 124.163 618.636 123.482C618.296 122.802 617.794 122.283 617.132 121.925C616.469 121.567 615.664 121.388 614.715 121.388C613.73 121.388 612.916 121.603 612.271 122.032C611.644 122.462 611.152 123.053 610.794 123.805C610.454 124.539 610.212 125.389 610.069 126.356C609.926 127.323 609.854 128.343 609.854 129.417V130.438C609.854 131.512 609.997 132.488 610.284 133.365C610.588 134.243 611.018 134.994 611.573 135.621C612.146 136.23 612.826 136.704 613.614 137.044C614.419 137.385 615.333 137.555 616.353 137.555C617.588 137.555 618.806 137.322 620.005 136.856C621.205 136.391 622.234 135.621 623.094 134.547L627.203 139.435C626.612 140.276 625.77 141.091 624.678 141.878C623.604 142.666 622.315 143.311 620.811 143.812C619.307 144.295 617.624 144.537 615.762 144.537ZM640.55 121.146V144H631.5V114.942H639.986L640.55 121.146ZM639.476 128.478L637.354 128.531C637.354 126.311 637.623 124.333 638.16 122.596C638.697 120.842 639.458 119.356 640.442 118.138C641.427 116.921 642.6 115.999 643.96 115.372C645.339 114.728 646.87 114.405 648.553 114.405C649.896 114.405 651.122 114.602 652.232 114.996C653.36 115.39 654.327 116.026 655.132 116.903C655.956 117.78 656.583 118.944 657.012 120.394C657.46 121.826 657.684 123.599 657.684 125.711V144H648.58V125.685C648.58 124.521 648.418 123.635 648.096 123.026C647.774 122.399 647.308 121.97 646.7 121.737C646.091 121.504 645.348 121.388 644.471 121.388C643.54 121.388 642.752 121.567 642.107 121.925C641.463 122.283 640.944 122.784 640.55 123.429C640.174 124.055 639.896 124.798 639.717 125.658C639.556 126.517 639.476 127.457 639.476 128.478ZM678.013 114.942V121.227H660.503V114.942H678.013ZM664.183 107.718H673.233V134.52C673.233 135.29 673.322 135.89 673.501 136.319C673.681 136.731 673.985 137.027 674.415 137.206C674.862 137.367 675.453 137.447 676.187 137.447C676.706 137.447 677.136 137.438 677.476 137.42C677.816 137.385 678.139 137.34 678.443 137.286V143.758C677.673 144.009 676.867 144.197 676.026 144.322C675.184 144.465 674.289 144.537 673.34 144.537C671.407 144.537 669.751 144.233 668.372 143.624C667.011 143.015 665.973 142.057 665.257 140.75C664.541 139.444 664.183 137.743 664.183 135.648V107.718ZM699.283 123.644V130.653H683.143V123.644H699.283ZM723.372 113.116L713.838 144H703.714L718.082 104.898H724.5L723.372 113.116ZM731.268 144L721.707 113.116L720.472 104.898H726.971L741.419 144H731.268ZM730.892 129.417V136.695H710.831V129.417H730.892ZM751.705 120.528V155.172H742.654V114.942H751.087L751.705 120.528ZM769.537 129.122V129.686C769.537 131.799 769.295 133.759 768.812 135.567C768.328 137.376 767.612 138.951 766.663 140.294C765.714 141.637 764.533 142.684 763.118 143.436C761.722 144.17 760.101 144.537 758.257 144.537C756.521 144.537 755.026 144.152 753.772 143.382C752.519 142.612 751.472 141.547 750.63 140.187C749.789 138.826 749.109 137.268 748.589 135.514C748.07 133.759 747.658 131.906 747.354 129.955V129.229C747.658 127.135 748.07 125.192 748.589 123.402C749.109 121.594 749.789 120.018 750.63 118.675C751.472 117.333 752.51 116.285 753.746 115.533C754.999 114.781 756.494 114.405 758.23 114.405C760.075 114.405 761.695 114.754 763.091 115.453C764.506 116.151 765.687 117.153 766.636 118.46C767.603 119.75 768.328 121.298 768.812 123.106C769.295 124.915 769.537 126.92 769.537 129.122ZM760.486 129.686V129.122C760.486 127.994 760.406 126.965 760.245 126.034C760.083 125.085 759.824 124.261 759.466 123.563C759.126 122.865 758.669 122.328 758.096 121.952C757.523 121.576 756.816 121.388 755.975 121.388C755.008 121.388 754.193 121.54 753.531 121.844C752.886 122.131 752.367 122.578 751.973 123.187C751.597 123.778 751.329 124.521 751.167 125.416C751.024 126.293 750.962 127.323 750.979 128.504V130.707C750.944 132.067 751.078 133.267 751.382 134.305C751.687 135.326 752.215 136.122 752.967 136.695C753.719 137.268 754.739 137.555 756.028 137.555C756.888 137.555 757.604 137.358 758.177 136.964C758.75 136.552 759.206 135.988 759.546 135.272C759.887 134.538 760.128 133.696 760.271 132.748C760.415 131.799 760.486 130.778 760.486 129.686ZM782.696 120.528V155.172H773.646V114.942H782.078L782.696 120.528ZM800.528 129.122V129.686C800.528 131.799 800.286 133.759 799.803 135.567C799.319 137.376 798.603 138.951 797.654 140.294C796.705 141.637 795.524 142.684 794.109 143.436C792.713 144.17 791.093 144.537 789.249 144.537C787.512 144.537 786.017 144.152 784.764 143.382C783.51 142.612 782.463 141.547 781.622 140.187C780.78 138.826 780.1 137.268 779.581 135.514C779.061 133.759 778.65 131.906 778.345 129.955V129.229C778.65 127.135 779.061 125.192 779.581 123.402C780.1 121.594 780.78 120.018 781.622 118.675C782.463 117.333 783.501 116.285 784.737 115.533C785.99 114.781 787.485 114.405 789.222 114.405C791.066 114.405 792.686 114.754 794.083 115.453C795.497 116.151 796.679 117.153 797.627 118.46C798.594 119.75 799.319 121.298 799.803 123.106C800.286 124.915 800.528 126.92 800.528 129.122ZM791.478 129.686V129.122C791.478 127.994 791.397 126.965 791.236 126.034C791.075 125.085 790.815 124.261 790.457 123.563C790.117 122.865 789.66 122.328 789.087 121.952C788.514 121.576 787.807 121.388 786.966 121.388C785.999 121.388 785.184 121.54 784.522 121.844C783.877 122.131 783.358 122.578 782.964 123.187C782.588 123.778 782.32 124.521 782.159 125.416C782.015 126.293 781.953 127.323 781.971 128.504V130.707C781.935 132.067 782.069 133.267 782.374 134.305C782.678 135.326 783.206 136.122 783.958 136.695C784.71 137.268 785.73 137.555 787.02 137.555C787.879 137.555 788.595 137.358 789.168 136.964C789.741 136.552 790.197 135.988 790.538 135.272C790.878 134.538 791.119 133.696 791.263 132.748C791.406 131.799 791.478 130.778 791.478 129.686ZM814.117 102.75V144H805.04V102.75H814.117ZM829.263 114.942V144H820.186V114.942H829.263ZM819.649 107.45C819.649 106.161 820.114 105.104 821.045 104.281C821.976 103.457 823.185 103.045 824.671 103.045C826.157 103.045 827.365 103.457 828.296 104.281C829.227 105.104 829.693 106.161 829.693 107.45C829.693 108.739 829.227 109.795 828.296 110.619C827.365 111.442 826.157 111.854 824.671 111.854C823.185 111.854 821.976 111.442 821.045 110.619C820.114 109.795 819.649 108.739 819.649 107.45ZM847.122 137.555C847.964 137.555 848.68 137.403 849.271 137.098C849.879 136.776 850.336 136.328 850.64 135.755C850.962 135.165 851.115 134.457 851.097 133.634H859.61C859.628 135.818 859.091 137.734 857.999 139.381C856.924 141.01 855.456 142.281 853.594 143.194C851.75 144.09 849.664 144.537 847.337 144.537C845.063 144.537 843.076 144.17 841.375 143.436C839.674 142.684 838.251 141.646 837.105 140.321C835.977 138.978 835.127 137.411 834.554 135.621C833.999 133.831 833.721 131.888 833.721 129.793V129.176C833.721 127.081 833.999 125.139 834.554 123.348C835.127 121.54 835.977 119.973 837.105 118.648C838.251 117.306 839.665 116.267 841.348 115.533C843.049 114.781 845.027 114.405 847.283 114.405C849.7 114.405 851.831 114.862 853.675 115.775C855.537 116.688 856.996 118.013 858.052 119.75C859.109 121.486 859.628 123.59 859.61 126.061H851.097C851.115 125.183 850.98 124.396 850.694 123.697C850.407 122.999 849.96 122.444 849.351 122.032C848.76 121.603 847.999 121.388 847.068 121.388C846.137 121.388 845.385 121.594 844.812 122.005C844.24 122.417 843.801 122.99 843.497 123.724C843.21 124.44 843.013 125.264 842.906 126.195C842.816 127.126 842.771 128.119 842.771 129.176V129.793C842.771 130.868 842.816 131.879 842.906 132.828C843.013 133.759 843.219 134.583 843.523 135.299C843.828 135.997 844.266 136.552 844.839 136.964C845.412 137.358 846.173 137.555 847.122 137.555ZM878.57 136.695V124.718C878.57 123.894 878.453 123.187 878.221 122.596C877.988 122.005 877.621 121.549 877.12 121.227C876.618 120.886 875.947 120.716 875.105 120.716C874.425 120.716 873.843 120.833 873.36 121.065C872.876 121.298 872.509 121.647 872.259 122.113C872.008 122.578 871.883 123.169 871.883 123.885H862.833C862.833 122.542 863.128 121.298 863.719 120.152C864.327 118.989 865.187 117.977 866.297 117.118C867.425 116.258 868.768 115.596 870.325 115.13C871.901 114.647 873.655 114.405 875.589 114.405C877.898 114.405 879.957 114.79 881.766 115.56C883.592 116.33 885.033 117.485 886.089 119.024C887.146 120.546 887.674 122.462 887.674 124.771V136.668C887.674 138.566 887.781 140.007 887.996 140.992C888.211 141.959 888.515 142.809 888.909 143.543V144H879.832C879.402 143.105 879.08 142.013 878.865 140.724C878.668 139.417 878.57 138.074 878.57 136.695ZM879.671 126.249L879.725 131.083H875.723C874.882 131.083 874.166 131.199 873.575 131.432C873.002 131.664 872.536 131.987 872.178 132.398C871.838 132.792 871.587 133.24 871.426 133.741C871.283 134.243 871.211 134.771 871.211 135.326C871.211 135.863 871.337 136.346 871.587 136.776C871.856 137.188 872.214 137.51 872.662 137.743C873.109 137.975 873.611 138.092 874.166 138.092C875.168 138.092 876.019 137.904 876.717 137.528C877.433 137.134 877.979 136.66 878.355 136.104C878.731 135.549 878.919 135.03 878.919 134.547L880.906 138.253C880.548 138.969 880.136 139.694 879.671 140.428C879.223 141.162 878.659 141.843 877.979 142.469C877.317 143.078 876.502 143.579 875.535 143.973C874.568 144.349 873.396 144.537 872.017 144.537C870.227 144.537 868.58 144.17 867.076 143.436C865.59 142.702 864.399 141.681 863.504 140.375C862.609 139.05 862.161 137.528 862.161 135.809C862.161 134.305 862.43 132.962 862.967 131.781C863.522 130.599 864.354 129.597 865.464 128.773C866.574 127.949 867.989 127.323 869.708 126.893C871.426 126.463 873.449 126.249 875.777 126.249H879.671ZM908.003 114.942V121.227H890.494V114.942H908.003ZM894.173 107.718H903.223V134.52C903.223 135.29 903.313 135.89 903.492 136.319C903.671 136.731 903.975 137.027 904.405 137.206C904.852 137.367 905.443 137.447 906.177 137.447C906.696 137.447 907.126 137.438 907.466 137.42C907.806 137.385 908.129 137.34 908.433 137.286V143.758C907.663 144.009 906.858 144.197 906.016 144.322C905.175 144.465 904.279 144.537 903.331 144.537C901.397 144.537 899.741 144.233 898.362 143.624C897.002 143.015 895.963 142.057 895.247 140.75C894.531 139.444 894.173 137.743 894.173 135.648V107.718ZM921.163 114.942V144H912.085V114.942H921.163ZM911.548 107.45C911.548 106.161 912.014 105.104 912.945 104.281C913.876 103.457 915.084 103.045 916.57 103.045C918.056 103.045 919.265 103.457 920.196 104.281C921.127 105.104 921.592 106.161 921.592 107.45C921.592 108.739 921.127 109.795 920.196 110.619C919.265 111.442 918.056 111.854 916.57 111.854C915.084 111.854 913.876 111.442 912.945 110.619C912.014 109.795 911.548 108.739 911.548 107.45ZM925.621 129.767V129.203C925.621 127.072 925.925 125.112 926.534 123.321C927.142 121.513 928.038 119.946 929.219 118.622C930.401 117.297 931.86 116.267 933.597 115.533C935.333 114.781 937.339 114.405 939.612 114.405C941.904 114.405 943.918 114.781 945.655 115.533C947.409 116.267 948.877 117.297 950.059 118.622C951.241 119.946 952.136 121.513 952.745 123.321C953.353 125.112 953.658 127.072 953.658 129.203V129.767C953.658 131.879 953.353 133.84 952.745 135.648C952.136 137.438 951.241 139.005 950.059 140.348C948.877 141.673 947.418 142.702 945.682 143.436C943.945 144.17 941.94 144.537 939.666 144.537C937.392 144.537 935.378 144.17 933.624 143.436C931.869 142.702 930.401 141.673 929.219 140.348C928.038 139.005 927.142 137.438 926.534 135.648C925.925 133.84 925.621 131.879 925.621 129.767ZM934.671 129.203V129.767C934.671 130.859 934.751 131.879 934.913 132.828C935.074 133.777 935.342 134.61 935.718 135.326C936.094 136.024 936.604 136.57 937.249 136.964C937.894 137.358 938.699 137.555 939.666 137.555C940.615 137.555 941.403 137.358 942.029 136.964C942.674 136.57 943.184 136.024 943.56 135.326C943.936 134.61 944.205 133.777 944.366 132.828C944.527 131.879 944.607 130.859 944.607 129.767V129.203C944.607 128.146 944.527 127.153 944.366 126.222C944.205 125.273 943.936 124.44 943.56 123.724C943.184 122.99 942.674 122.417 942.029 122.005C941.385 121.594 940.579 121.388 939.612 121.388C938.663 121.388 937.867 121.594 937.222 122.005C936.596 122.417 936.094 122.99 935.718 123.724C935.342 124.44 935.074 125.273 934.913 126.222C934.751 127.153 934.671 128.146 934.671 129.203ZM966.575 121.146V144H957.525V114.942H966.011L966.575 121.146ZM965.501 128.478L963.379 128.531C963.379 126.311 963.648 124.333 964.185 122.596C964.722 120.842 965.483 119.356 966.468 118.138C967.452 116.921 968.625 115.999 969.986 115.372C971.364 114.728 972.895 114.405 974.578 114.405C975.921 114.405 977.147 114.602 978.257 114.996C979.385 115.39 980.352 116.026 981.158 116.903C981.981 117.78 982.608 118.944 983.038 120.394C983.485 121.826 983.709 123.599 983.709 125.711V144H974.605V125.685C974.605 124.521 974.444 123.635 974.122 123.026C973.799 122.399 973.334 121.97 972.725 121.737C972.116 121.504 971.373 121.388 970.496 121.388C969.565 121.388 968.777 121.567 968.133 121.925C967.488 122.283 966.969 122.784 966.575 123.429C966.199 124.055 965.922 124.798 965.743 125.658C965.582 126.517 965.501 127.457 965.501 128.478Z" fill="#054168"/>
<path d="M114.473 55.1172V80H109.346L99.3486 63.3203V80H94.2217V55.1172H99.3486L109.363 71.814V55.1172H114.473ZM117.84 70.9424V70.5835C117.84 69.2277 118.034 67.9801 118.421 66.8408C118.808 65.6901 119.372 64.6932 120.113 63.8501C120.853 63.007 121.765 62.3519 122.847 61.8848C123.93 61.4062 125.171 61.167 126.573 61.167C127.974 61.167 129.222 61.4062 130.315 61.8848C131.409 62.3519 132.326 63.007 133.067 63.8501C133.819 64.6932 134.389 65.6901 134.776 66.8408C135.163 67.9801 135.357 69.2277 135.357 70.5835V70.9424C135.357 72.2868 135.163 73.5343 134.776 74.6851C134.389 75.8244 133.819 76.8213 133.067 77.6758C132.326 78.5189 131.415 79.174 130.333 79.6411C129.25 80.1082 128.008 80.3418 126.607 80.3418C125.206 80.3418 123.958 80.1082 122.864 79.6411C121.782 79.174 120.865 78.5189 120.113 77.6758C119.372 76.8213 118.808 75.8244 118.421 74.6851C118.034 73.5343 117.84 72.2868 117.84 70.9424ZM122.762 70.5835V70.9424C122.762 71.7171 122.83 72.4406 122.967 73.1128C123.104 73.785 123.32 74.3774 123.616 74.8901C123.924 75.3914 124.323 75.7845 124.812 76.0693C125.302 76.3542 125.901 76.4966 126.607 76.4966C127.291 76.4966 127.877 76.3542 128.367 76.0693C128.857 75.7845 129.25 75.3914 129.546 74.8901C129.843 74.3774 130.059 73.785 130.196 73.1128C130.344 72.4406 130.418 71.7171 130.418 70.9424V70.5835C130.418 69.8315 130.344 69.1252 130.196 68.4644C130.059 67.7922 129.837 67.1997 129.529 66.687C129.233 66.1629 128.84 65.7528 128.35 65.4565C127.86 65.1603 127.268 65.0122 126.573 65.0122C125.878 65.0122 125.285 65.1603 124.795 65.4565C124.317 65.7528 123.924 66.1629 123.616 66.687C123.32 67.1997 123.104 67.7922 122.967 68.4644C122.83 69.1252 122.762 69.8315 122.762 70.5835ZM149.319 75.5737V61.5088H154.241V80H149.61L149.319 75.5737ZM149.866 71.7798L151.319 71.7456C151.319 72.9761 151.176 74.1211 150.892 75.1807C150.607 76.2288 150.18 77.1403 149.61 77.915C149.04 78.6784 148.322 79.2765 147.457 79.7095C146.591 80.131 145.571 80.3418 144.397 80.3418C143.497 80.3418 142.666 80.2165 141.902 79.9658C141.15 79.7038 140.501 79.2993 139.954 78.7524C139.419 78.1942 138.997 77.4821 138.689 76.6162C138.393 75.7389 138.245 74.6851 138.245 73.4546V61.5088H143.167V73.4888C143.167 74.0356 143.23 74.4971 143.355 74.873C143.492 75.249 143.68 75.5566 143.919 75.7959C144.158 76.0352 144.437 76.2061 144.756 76.3086C145.087 76.4111 145.451 76.4624 145.85 76.4624C146.864 76.4624 147.662 76.2573 148.243 75.8472C148.835 75.437 149.251 74.8787 149.49 74.1724C149.741 73.4546 149.866 72.6571 149.866 71.7798ZM162.923 65.542V80H158.001V61.5088H162.632L162.923 65.542ZM168.494 61.3892L168.409 65.9521C168.169 65.918 167.879 65.8895 167.537 65.8667C167.207 65.8325 166.905 65.8154 166.631 65.8154C165.936 65.8154 165.333 65.9066 164.82 66.0889C164.319 66.2598 163.897 66.5161 163.555 66.8579C163.225 67.1997 162.974 67.6156 162.803 68.1055C162.644 68.5954 162.553 69.1536 162.53 69.7803L161.539 69.4727C161.539 68.2764 161.658 67.1769 161.897 66.1743C162.137 65.1603 162.484 64.2773 162.94 63.5254C163.407 62.7734 163.977 62.1924 164.649 61.7822C165.321 61.3721 166.09 61.167 166.956 61.167C167.229 61.167 167.509 61.1898 167.793 61.2354C168.078 61.2695 168.312 61.3208 168.494 61.3892ZM182.183 55.1172H186.524L192.916 73.3862L199.307 55.1172H203.648L194.659 80H191.172L182.183 55.1172ZM179.842 55.1172H184.166L184.952 72.9248V80H179.842V55.1172ZM201.666 55.1172H206.006V80H200.879V72.9248L201.666 55.1172ZM218.704 80.3418C217.269 80.3418 215.981 80.1139 214.842 79.6582C213.702 79.1911 212.734 78.5474 211.937 77.7271C211.15 76.9067 210.547 75.9554 210.125 74.873C209.703 73.7793 209.493 72.6172 209.493 71.3867V70.7031C209.493 69.3018 209.692 68.02 210.091 66.8579C210.49 65.6958 211.059 64.6875 211.8 63.833C212.552 62.9785 213.463 62.3234 214.534 61.8677C215.605 61.4006 216.813 61.167 218.157 61.167C219.467 61.167 220.63 61.3835 221.644 61.8164C222.658 62.2493 223.506 62.8646 224.19 63.6621C224.885 64.4596 225.409 65.4167 225.762 66.5332C226.115 67.6383 226.292 68.8688 226.292 70.2246V72.2754H211.595V68.9941H221.456V68.6182C221.456 67.9346 221.33 67.325 221.08 66.7896C220.84 66.2427 220.476 65.8097 219.986 65.4907C219.496 65.1717 218.869 65.0122 218.106 65.0122C217.457 65.0122 216.898 65.1546 216.431 65.4395C215.964 65.7243 215.582 66.123 215.286 66.6357C215.001 67.1484 214.785 67.7523 214.637 68.4473C214.5 69.1309 214.432 69.8828 214.432 70.7031V71.3867C214.432 72.1273 214.534 72.8109 214.739 73.4375C214.956 74.0641 215.258 74.6053 215.645 75.061C216.044 75.5168 216.522 75.87 217.081 76.1206C217.65 76.3713 218.294 76.4966 219.012 76.4966C219.9 76.4966 220.726 76.3257 221.49 75.9839C222.264 75.6307 222.931 75.1009 223.489 74.3945L225.882 76.9922C225.494 77.5505 224.965 78.0859 224.292 78.5986C223.632 79.1113 222.834 79.5329 221.9 79.8633C220.966 80.1823 219.9 80.3418 218.704 80.3418ZM239.092 74.8901C239.092 74.5369 238.99 74.2179 238.785 73.9331C238.58 73.6483 238.198 73.3862 237.64 73.147C237.093 72.8963 236.301 72.6685 235.264 72.4634C234.33 72.2583 233.458 72.002 232.649 71.6943C231.852 71.3753 231.157 70.9937 230.564 70.5493C229.983 70.105 229.528 69.5809 229.197 68.9771C228.867 68.3618 228.702 67.6611 228.702 66.875C228.702 66.1003 228.867 65.3711 229.197 64.6875C229.539 64.0039 230.023 63.4001 230.65 62.876C231.288 62.3405 232.063 61.9246 232.974 61.6284C233.897 61.3208 234.934 61.167 236.084 61.167C237.691 61.167 239.069 61.4233 240.22 61.936C241.382 62.4487 242.271 63.1551 242.886 64.0552C243.513 64.9438 243.826 65.9578 243.826 67.0972H238.904C238.904 66.6187 238.802 66.1914 238.597 65.8154C238.403 65.4281 238.095 65.1261 237.674 64.9097C237.264 64.6818 236.728 64.5679 236.067 64.5679C235.521 64.5679 235.048 64.6647 234.649 64.8584C234.25 65.0407 233.943 65.2913 233.726 65.6104C233.521 65.918 233.418 66.2598 233.418 66.6357C233.418 66.9206 233.475 67.1769 233.589 67.4048C233.715 67.6213 233.914 67.8206 234.188 68.0029C234.461 68.1852 234.814 68.3561 235.247 68.5156C235.691 68.6637 236.238 68.8005 236.888 68.9258C238.221 69.1992 239.411 69.5581 240.459 70.0024C241.508 70.4354 242.339 71.0278 242.955 71.7798C243.57 72.5203 243.877 73.4945 243.877 74.7021C243.877 75.5225 243.695 76.2744 243.331 76.958C242.966 77.6416 242.442 78.2397 241.758 78.7524C241.075 79.2537 240.254 79.6468 239.297 79.9316C238.352 80.2051 237.286 80.3418 236.102 80.3418C234.381 80.3418 232.923 80.0342 231.727 79.4189C230.542 78.8037 229.642 78.0233 229.026 77.0776C228.423 76.1206 228.121 75.1408 228.121 74.1382H232.786C232.809 74.8104 232.98 75.3516 233.299 75.7617C233.629 76.1719 234.045 76.4681 234.546 76.6504C235.059 76.8327 235.612 76.9238 236.204 76.9238C236.842 76.9238 237.372 76.8384 237.793 76.6675C238.215 76.4852 238.534 76.2459 238.75 75.9497C238.978 75.6421 239.092 75.2889 239.092 74.8901ZM257.071 74.8901C257.071 74.5369 256.968 74.2179 256.763 73.9331C256.558 73.6483 256.176 73.3862 255.618 73.147C255.071 72.8963 254.279 72.6685 253.243 72.4634C252.308 72.2583 251.437 72.002 250.628 71.6943C249.83 71.3753 249.135 70.9937 248.543 70.5493C247.962 70.105 247.506 69.5809 247.176 68.9771C246.845 68.3618 246.68 67.6611 246.68 66.875C246.68 66.1003 246.845 65.3711 247.176 64.6875C247.518 64.0039 248.002 63.4001 248.628 62.876C249.266 62.3405 250.041 61.9246 250.953 61.6284C251.875 61.3208 252.912 61.167 254.063 61.167C255.669 61.167 257.048 61.4233 258.199 61.936C259.361 62.4487 260.25 63.1551 260.865 64.0552C261.491 64.9438 261.805 65.9578 261.805 67.0972H256.883C256.883 66.6187 256.78 66.1914 256.575 65.8154C256.382 65.4281 256.074 65.1261 255.652 64.9097C255.242 64.6818 254.707 64.5679 254.046 64.5679C253.499 64.5679 253.026 64.6647 252.627 64.8584C252.229 65.0407 251.921 65.2913 251.705 65.6104C251.5 65.918 251.397 66.2598 251.397 66.6357C251.397 66.9206 251.454 67.1769 251.568 67.4048C251.693 67.6213 251.893 67.8206 252.166 68.0029C252.439 68.1852 252.793 68.3561 253.226 68.5156C253.67 68.6637 254.217 68.8005 254.866 68.9258C256.199 69.1992 257.39 69.5581 258.438 70.0024C259.486 70.4354 260.318 71.0278 260.933 71.7798C261.548 72.5203 261.856 73.4945 261.856 74.7021C261.856 75.5225 261.674 76.2744 261.309 76.958C260.944 77.6416 260.42 78.2397 259.737 78.7524C259.053 79.2537 258.233 79.6468 257.276 79.9316C256.33 80.2051 255.265 80.3418 254.08 80.3418C252.36 80.3418 250.901 80.0342 249.705 79.4189C248.52 78.8037 247.62 78.0233 247.005 77.0776C246.401 76.1206 246.099 75.1408 246.099 74.1382H250.765C250.787 74.8104 250.958 75.3516 251.277 75.7617C251.608 76.1719 252.024 76.4681 252.525 76.6504C253.038 76.8327 253.59 76.9238 254.183 76.9238C254.821 76.9238 255.35 76.8384 255.772 76.6675C256.194 76.4852 256.513 76.2459 256.729 75.9497C256.957 75.6421 257.071 75.2889 257.071 74.8901ZM270.247 53.75V80H265.308V53.75H270.247ZM279.236 65.3369V80H274.297V61.5088H278.929L279.236 65.3369ZM278.553 70.105H277.186C277.186 68.8175 277.339 67.6326 277.647 66.5503C277.966 65.4565 278.427 64.5109 279.031 63.7134C279.646 62.9045 280.404 62.2778 281.304 61.8335C282.204 61.3892 283.247 61.167 284.432 61.167C285.252 61.167 286.004 61.2923 286.688 61.543C287.371 61.7822 287.958 62.1639 288.448 62.688C288.949 63.2007 289.336 63.8729 289.61 64.7046C289.883 65.5249 290.02 66.5104 290.02 67.6611V80H285.098V68.208C285.098 67.3649 284.984 66.7155 284.756 66.2598C284.528 65.804 284.204 65.485 283.782 65.3027C283.372 65.1204 282.876 65.0293 282.295 65.0293C281.657 65.0293 281.099 65.1603 280.621 65.4224C280.153 65.6844 279.766 66.049 279.458 66.5161C279.151 66.9718 278.923 67.5073 278.775 68.1226C278.627 68.7378 278.553 69.3986 278.553 70.105ZM289.559 69.541L287.798 69.7632C287.798 68.5555 287.946 67.4333 288.243 66.3965C288.55 65.3597 289 64.4482 289.593 63.6621C290.197 62.876 290.943 62.2664 291.832 61.8335C292.72 61.3892 293.746 61.167 294.908 61.167C295.796 61.167 296.605 61.298 297.334 61.5601C298.064 61.8107 298.685 62.2152 299.197 62.7734C299.721 63.3203 300.12 64.0381 300.394 64.9268C300.678 65.8154 300.821 66.9035 300.821 68.1909V80H295.882V68.1909C295.882 67.3364 295.768 66.687 295.54 66.2427C295.324 65.7869 295.005 65.4736 294.583 65.3027C294.173 65.1204 293.683 65.0293 293.113 65.0293C292.521 65.0293 292.002 65.1489 291.558 65.3882C291.114 65.616 290.743 65.9351 290.447 66.3452C290.151 66.7554 289.929 67.2339 289.781 67.7808C289.633 68.3162 289.559 68.903 289.559 69.541ZM314.612 75.8301V67.5928C314.612 67.0003 314.515 66.4933 314.322 66.0718C314.128 65.6388 313.826 65.3027 313.416 65.0635C313.017 64.8242 312.499 64.7046 311.861 64.7046C311.314 64.7046 310.841 64.8014 310.442 64.9951C310.044 65.1774 309.736 65.4451 309.52 65.7983C309.303 66.1401 309.195 66.5446 309.195 67.0117H304.273C304.273 66.2256 304.455 65.4793 304.82 64.7729C305.184 64.0666 305.714 63.4456 306.409 62.9102C307.104 62.3633 307.93 61.936 308.887 61.6284C309.856 61.3208 310.938 61.167 312.134 61.167C313.57 61.167 314.846 61.4062 315.962 61.8848C317.079 62.3633 317.956 63.0811 318.594 64.0381C319.244 64.9951 319.568 66.1914 319.568 67.627V75.5396C319.568 76.5535 319.631 77.3853 319.756 78.0347C319.882 78.6727 320.064 79.231 320.303 79.7095V80H315.33C315.091 79.4987 314.909 78.8721 314.783 78.1201C314.669 77.3568 314.612 76.5934 314.612 75.8301ZM315.262 68.7378L315.296 71.5234H312.544C311.895 71.5234 311.331 71.5975 310.853 71.7456C310.374 71.8937 309.981 72.1045 309.673 72.3779C309.366 72.64 309.138 72.9476 308.99 73.3008C308.853 73.654 308.785 74.0413 308.785 74.4629C308.785 74.8844 308.882 75.2661 309.075 75.6079C309.269 75.9383 309.548 76.2004 309.913 76.394C310.277 76.5763 310.704 76.6675 311.194 76.6675C311.935 76.6675 312.579 76.5194 313.125 76.2231C313.672 75.9269 314.094 75.5623 314.39 75.1294C314.698 74.6965 314.857 74.2863 314.869 73.8989L316.167 75.9839C315.985 76.451 315.735 76.9352 315.416 77.4365C315.108 77.9378 314.715 78.4106 314.236 78.855C313.758 79.2879 313.182 79.6468 312.51 79.9316C311.838 80.2051 311.041 80.3418 310.118 80.3418C308.944 80.3418 307.879 80.1082 306.922 79.6411C305.976 79.1626 305.224 78.5075 304.666 77.6758C304.119 76.8327 303.846 75.8757 303.846 74.8047C303.846 73.8363 304.028 72.9761 304.393 72.2241C304.757 71.4722 305.293 70.8398 305.999 70.3271C306.717 69.8031 307.611 69.41 308.682 69.1479C309.753 68.8745 310.995 68.7378 312.408 68.7378H315.262ZM328.182 65.4565V80H323.26V61.5088H327.874L328.182 65.4565ZM327.464 70.105H326.131C326.131 68.7378 326.307 67.5073 326.661 66.4136C327.014 65.3084 327.509 64.3685 328.147 63.5938C328.785 62.8076 329.543 62.2095 330.42 61.7993C331.309 61.3778 332.3 61.167 333.394 61.167C334.26 61.167 335.052 61.2923 335.77 61.543C336.487 61.7936 337.103 62.1924 337.615 62.7393C338.139 63.2861 338.538 64.0096 338.812 64.9097C339.096 65.8097 339.239 66.9092 339.239 68.208V80H334.283V68.1909C334.283 67.3706 334.169 66.7326 333.941 66.2769C333.713 65.8211 333.377 65.5021 332.933 65.3198C332.5 65.1261 331.964 65.0293 331.326 65.0293C330.665 65.0293 330.09 65.1603 329.6 65.4224C329.122 65.6844 328.723 66.049 328.404 66.5161C328.096 66.9718 327.863 67.5073 327.703 68.1226C327.544 68.7378 327.464 69.3986 327.464 70.105ZM348.177 61.5088V80H343.238V61.5088H348.177ZM342.93 56.6895C342.93 55.9717 343.181 55.3792 343.682 54.9121C344.183 54.445 344.856 54.2114 345.699 54.2114C346.53 54.2114 347.197 54.445 347.698 54.9121C348.211 55.3792 348.467 55.9717 348.467 56.6895C348.467 57.4072 348.211 57.9997 347.698 58.4668C347.197 58.9339 346.53 59.1675 345.699 59.1675C344.856 59.1675 344.183 58.9339 343.682 58.4668C343.181 57.9997 342.93 57.4072 342.93 56.6895Z" fill="#888888"/>
<rect x="92" y="181" width="1179" height="80" rx="13.3333" fill="#CCCCCC"/>
<rect x="107" y="196.333" width="208" height="49.3333" rx="4.66667" fill="#888888" stroke="#888888" stroke-width="4"/>
<path d="M171.823 213.167H177.792C178.958 213.167 179.972 213.34 180.833 213.687C181.694 214.035 182.358 214.549 182.823 215.229C183.295 215.91 183.531 216.75 183.531 217.75C183.531 218.618 183.396 219.344 183.125 219.927C182.854 220.51 182.476 220.993 181.99 221.375C181.51 221.75 180.951 222.059 180.312 222.302L179.115 222.979H174.104L174.083 220.156H177.792C178.257 220.156 178.642 220.073 178.948 219.906C179.253 219.74 179.483 219.503 179.635 219.198C179.795 218.885 179.875 218.514 179.875 218.083C179.875 217.646 179.795 217.271 179.635 216.958C179.476 216.646 179.24 216.406 178.927 216.24C178.622 216.073 178.243 215.99 177.792 215.99H175.479V228.333H171.823V213.167ZM180.125 228.333L176.771 221.625L180.646 221.604L184.042 228.177V228.333H180.125ZM191.031 228.542C190.115 228.542 189.295 228.399 188.573 228.115C187.851 227.823 187.24 227.424 186.74 226.917C186.247 226.41 185.868 225.826 185.604 225.167C185.347 224.507 185.219 223.809 185.219 223.073V222.677C185.219 221.851 185.333 221.087 185.562 220.385C185.792 219.677 186.132 219.059 186.583 218.531C187.035 218.003 187.601 217.594 188.281 217.302C188.962 217.003 189.753 216.854 190.656 216.854C191.455 216.854 192.17 216.983 192.802 217.24C193.434 217.497 193.969 217.865 194.406 218.344C194.851 218.823 195.187 219.403 195.417 220.083C195.653 220.764 195.771 221.528 195.771 222.375V223.802H186.562V221.604H192.344V221.333C192.351 220.958 192.285 220.639 192.146 220.375C192.014 220.111 191.819 219.91 191.562 219.771C191.306 219.632 190.993 219.562 190.625 219.562C190.243 219.562 189.927 219.646 189.677 219.812C189.434 219.979 189.243 220.208 189.104 220.5C188.972 220.785 188.878 221.115 188.823 221.49C188.767 221.865 188.74 222.26 188.74 222.677V223.073C188.74 223.49 188.795 223.868 188.906 224.208C189.024 224.549 189.191 224.84 189.406 225.083C189.628 225.319 189.892 225.503 190.198 225.635C190.51 225.767 190.865 225.833 191.26 225.833C191.74 225.833 192.212 225.743 192.677 225.562C193.142 225.382 193.542 225.083 193.875 224.667L195.469 226.562C195.24 226.889 194.913 227.205 194.49 227.51C194.073 227.816 193.573 228.066 192.99 228.26C192.406 228.448 191.753 228.542 191.031 228.542ZM203.052 225.5V220.854C203.052 220.535 203.007 220.26 202.917 220.031C202.826 219.802 202.684 219.625 202.49 219.5C202.295 219.368 202.035 219.302 201.708 219.302C201.444 219.302 201.219 219.347 201.031 219.437C200.844 219.528 200.701 219.663 200.604 219.844C200.507 220.024 200.458 220.253 200.458 220.531H196.948C196.948 220.01 197.062 219.528 197.292 219.083C197.528 218.632 197.861 218.24 198.292 217.906C198.729 217.573 199.25 217.316 199.854 217.135C200.465 216.948 201.146 216.854 201.896 216.854C202.792 216.854 203.59 217.003 204.292 217.302C205 217.601 205.559 218.049 205.969 218.646C206.378 219.236 206.583 219.979 206.583 220.875V225.49C206.583 226.226 206.625 226.785 206.708 227.167C206.792 227.542 206.91 227.872 207.062 228.156V228.333H203.542C203.375 227.986 203.25 227.562 203.167 227.062C203.09 226.556 203.052 226.035 203.052 225.5ZM203.479 221.448L203.5 223.323H201.948C201.622 223.323 201.344 223.368 201.115 223.458C200.892 223.549 200.712 223.674 200.573 223.833C200.441 223.986 200.344 224.16 200.281 224.354C200.226 224.549 200.198 224.753 200.198 224.969C200.198 225.177 200.247 225.365 200.344 225.531C200.448 225.691 200.587 225.816 200.76 225.906C200.934 225.997 201.128 226.042 201.344 226.042C201.733 226.042 202.062 225.969 202.333 225.823C202.611 225.67 202.823 225.486 202.969 225.271C203.115 225.056 203.187 224.854 203.187 224.667L203.958 226.104C203.819 226.382 203.66 226.663 203.479 226.948C203.306 227.233 203.087 227.497 202.823 227.74C202.566 227.976 202.25 228.17 201.875 228.323C201.5 228.469 201.045 228.542 200.51 228.542C199.816 228.542 199.177 228.399 198.594 228.115C198.017 227.83 197.556 227.434 197.208 226.927C196.861 226.413 196.687 225.823 196.687 225.156C196.687 224.573 196.792 224.052 197 223.594C197.215 223.135 197.538 222.747 197.969 222.427C198.399 222.108 198.948 221.865 199.615 221.698C200.281 221.531 201.066 221.448 201.969 221.448H203.479ZM213.292 225.833C213.618 225.833 213.896 225.774 214.125 225.656C214.361 225.531 214.538 225.358 214.656 225.135C214.781 224.906 214.84 224.632 214.833 224.312H218.135C218.142 225.16 217.934 225.903 217.51 226.542C217.094 227.174 216.524 227.667 215.802 228.021C215.087 228.368 214.278 228.542 213.375 228.542C212.493 228.542 211.722 228.399 211.062 228.115C210.403 227.823 209.851 227.42 209.406 226.906C208.969 226.385 208.639 225.778 208.417 225.083C208.201 224.389 208.094 223.635 208.094 222.823V222.583C208.094 221.771 208.201 221.017 208.417 220.323C208.639 219.622 208.969 219.014 209.406 218.5C209.851 217.979 210.399 217.576 211.052 217.292C211.712 217 212.479 216.854 213.354 216.854C214.292 216.854 215.118 217.031 215.833 217.385C216.556 217.74 217.122 218.253 217.531 218.927C217.941 219.601 218.142 220.417 218.135 221.375H214.833C214.84 221.035 214.788 220.729 214.677 220.458C214.566 220.187 214.392 219.972 214.156 219.812C213.927 219.646 213.632 219.562 213.271 219.562C212.91 219.562 212.618 219.642 212.396 219.802C212.174 219.962 212.003 220.184 211.885 220.469C211.774 220.747 211.698 221.066 211.656 221.427C211.622 221.788 211.604 222.174 211.604 222.583V222.823C211.604 223.24 211.622 223.632 211.656 224C211.698 224.361 211.778 224.681 211.896 224.958C212.014 225.229 212.184 225.444 212.406 225.604C212.628 225.757 212.924 225.833 213.292 225.833ZM225.573 217.062V219.5H218.781V217.062H225.573ZM220.208 214.26H223.719V224.656C223.719 224.955 223.753 225.187 223.823 225.354C223.892 225.514 224.01 225.628 224.177 225.698C224.351 225.76 224.58 225.792 224.865 225.792C225.066 225.792 225.233 225.788 225.365 225.781C225.497 225.767 225.622 225.75 225.74 225.729V228.24C225.441 228.337 225.128 228.41 224.802 228.458C224.476 228.514 224.128 228.542 223.76 228.542C223.01 228.542 222.368 228.424 221.833 228.187C221.306 227.951 220.903 227.58 220.625 227.073C220.347 226.566 220.208 225.906 220.208 225.094V214.26ZM233.167 223.573V213.167H236.812V223.573C236.812 224.587 236.58 225.465 236.115 226.208C235.656 226.951 235.031 227.528 234.24 227.937C233.455 228.34 232.573 228.542 231.594 228.542C230.58 228.542 229.677 228.372 228.885 228.031C228.101 227.691 227.483 227.167 227.031 226.458C226.587 225.75 226.365 224.847 226.365 223.75H230.031C230.031 224.264 230.09 224.667 230.208 224.958C230.326 225.243 230.5 225.444 230.729 225.562C230.965 225.674 231.253 225.729 231.594 225.729C231.927 225.729 232.208 225.646 232.437 225.479C232.674 225.306 232.854 225.059 232.979 224.74C233.104 224.413 233.167 224.024 233.167 223.573ZM246.948 224.302C246.948 224.066 246.913 223.854 246.844 223.667C246.774 223.472 246.646 223.292 246.458 223.125C246.271 222.958 246 222.792 245.646 222.625C245.299 222.451 244.84 222.271 244.271 222.083C243.604 221.861 242.962 221.611 242.344 221.333C241.726 221.049 241.174 220.719 240.687 220.344C240.201 219.962 239.816 219.517 239.531 219.01C239.247 218.497 239.104 217.899 239.104 217.219C239.104 216.566 239.25 215.979 239.542 215.458C239.833 214.931 240.24 214.483 240.76 214.115C241.288 213.74 241.906 213.455 242.615 213.26C243.323 213.059 244.097 212.958 244.937 212.958C246.049 212.958 247.028 213.153 247.875 213.542C248.729 213.924 249.396 214.469 249.875 215.177C250.361 215.878 250.604 216.708 250.604 217.667H246.969C246.969 217.285 246.889 216.948 246.729 216.656C246.576 216.365 246.344 216.135 246.031 215.969C245.719 215.802 245.326 215.719 244.854 215.719C244.396 215.719 244.01 215.788 243.698 215.927C243.385 216.066 243.149 216.253 242.99 216.49C242.83 216.719 242.75 216.972 242.75 217.25C242.75 217.479 242.812 217.687 242.937 217.875C243.069 218.056 243.253 218.226 243.49 218.385C243.733 218.545 244.024 218.698 244.365 218.844C244.712 218.99 245.101 219.132 245.531 219.271C246.337 219.528 247.052 219.816 247.677 220.135C248.309 220.448 248.84 220.806 249.271 221.208C249.708 221.604 250.038 222.056 250.26 222.562C250.49 223.069 250.604 223.642 250.604 224.281C250.604 224.962 250.472 225.566 250.208 226.094C249.944 226.622 249.566 227.069 249.073 227.437C248.58 227.799 247.99 228.073 247.302 228.26C246.615 228.448 245.847 228.542 245 228.542C244.222 228.542 243.455 228.444 242.698 228.25C241.948 228.049 241.267 227.743 240.656 227.333C240.045 226.917 239.556 226.385 239.187 225.74C238.826 225.087 238.646 224.312 238.646 223.417H242.312C242.312 223.861 242.372 224.236 242.49 224.542C242.608 224.847 242.781 225.094 243.01 225.281C243.24 225.462 243.521 225.594 243.854 225.677C244.187 225.753 244.569 225.792 245 225.792C245.465 225.792 245.84 225.726 246.125 225.594C246.41 225.455 246.618 225.274 246.75 225.052C246.882 224.823 246.948 224.573 246.948 224.302Z" fill="white"/>
<rect x="339" y="196.333" width="208" height="49.3333" rx="4.66667" fill="#888888" stroke="#888888" stroke-width="4"/>
<path d="M419.073 225.521V228.333H411.406V225.521H419.073ZM412.708 213.167V228.333H409.052V213.167H412.708ZM426.302 225.5V220.854C426.302 220.535 426.257 220.26 426.167 220.031C426.076 219.802 425.934 219.625 425.74 219.5C425.545 219.368 425.285 219.302 424.958 219.302C424.694 219.302 424.469 219.347 424.281 219.437C424.094 219.528 423.951 219.663 423.854 219.844C423.757 220.024 423.708 220.253 423.708 220.531H420.198C420.198 220.01 420.312 219.528 420.542 219.083C420.778 218.632 421.111 218.24 421.542 217.906C421.979 217.573 422.5 217.316 423.104 217.135C423.715 216.948 424.396 216.854 425.146 216.854C426.042 216.854 426.84 217.003 427.542 217.302C428.25 217.601 428.809 218.049 429.219 218.646C429.628 219.236 429.833 219.979 429.833 220.875V225.49C429.833 226.226 429.875 226.785 429.958 227.167C430.042 227.542 430.16 227.872 430.312 228.156V228.333H426.792C426.625 227.986 426.5 227.562 426.417 227.062C426.34 226.556 426.302 226.035 426.302 225.5ZM426.729 221.448L426.75 223.323H425.198C424.872 223.323 424.594 223.368 424.365 223.458C424.142 223.549 423.962 223.674 423.823 223.833C423.691 223.986 423.594 224.16 423.531 224.354C423.476 224.549 423.448 224.753 423.448 224.969C423.448 225.177 423.497 225.365 423.594 225.531C423.698 225.691 423.837 225.816 424.01 225.906C424.184 225.997 424.378 226.042 424.594 226.042C424.983 226.042 425.312 225.969 425.583 225.823C425.861 225.67 426.073 225.486 426.219 225.271C426.365 225.056 426.437 224.854 426.437 224.667L427.208 226.104C427.069 226.382 426.91 226.663 426.729 226.948C426.556 227.233 426.337 227.497 426.073 227.74C425.816 227.976 425.5 228.17 425.125 228.323C424.75 228.469 424.295 228.542 423.76 228.542C423.066 228.542 422.427 228.399 421.844 228.115C421.267 227.83 420.806 227.434 420.458 226.927C420.111 226.413 419.937 225.823 419.937 225.156C419.937 224.573 420.042 224.052 420.25 223.594C420.465 223.135 420.788 222.747 421.219 222.427C421.649 222.108 422.198 221.865 422.865 221.698C423.531 221.531 424.316 221.448 425.219 221.448H426.729ZM435.323 219.854V228.333H431.812V217.062H435.094L435.323 219.854ZM438.656 216.979L438.594 220.24C438.455 220.226 438.267 220.208 438.031 220.187C437.795 220.167 437.597 220.156 437.437 220.156C437.028 220.156 436.674 220.205 436.375 220.302C436.083 220.392 435.84 220.531 435.646 220.719C435.458 220.899 435.319 221.128 435.229 221.406C435.146 221.684 435.108 222.007 435.115 222.375L434.479 221.958C434.479 221.201 434.552 220.514 434.698 219.896C434.851 219.271 435.066 218.733 435.344 218.281C435.622 217.823 435.958 217.472 436.354 217.229C436.75 216.979 437.194 216.854 437.687 216.854C437.861 216.854 438.031 216.865 438.198 216.885C438.372 216.906 438.524 216.937 438.656 216.979ZM445.406 225.5V220.854C445.406 220.535 445.361 220.26 445.271 220.031C445.181 219.802 445.038 219.625 444.844 219.5C444.649 219.368 444.389 219.302 444.063 219.302C443.799 219.302 443.573 219.347 443.385 219.437C443.198 219.528 443.056 219.663 442.958 219.844C442.861 220.024 442.813 220.253 442.813 220.531H439.302C439.302 220.01 439.417 219.528 439.646 219.083C439.882 218.632 440.215 218.24 440.646 217.906C441.083 217.573 441.604 217.316 442.208 217.135C442.819 216.948 443.5 216.854 444.25 216.854C445.146 216.854 445.944 217.003 446.646 217.302C447.354 217.601 447.913 218.049 448.323 218.646C448.733 219.236 448.938 219.979 448.938 220.875V225.49C448.938 226.226 448.979 226.785 449.063 227.167C449.146 227.542 449.264 227.872 449.417 228.156V228.333H445.896C445.729 227.986 445.604 227.562 445.521 227.062C445.444 226.556 445.406 226.035 445.406 225.5ZM445.833 221.448L445.854 223.323H444.302C443.976 223.323 443.698 223.368 443.469 223.458C443.247 223.549 443.066 223.674 442.927 223.833C442.795 223.986 442.698 224.16 442.635 224.354C442.58 224.549 442.552 224.753 442.552 224.969C442.552 225.177 442.601 225.365 442.698 225.531C442.802 225.691 442.941 225.816 443.115 225.906C443.288 225.997 443.483 226.042 443.698 226.042C444.087 226.042 444.417 225.969 444.688 225.823C444.965 225.67 445.177 225.486 445.323 225.271C445.469 225.056 445.542 224.854 445.542 224.667L446.313 226.104C446.174 226.382 446.014 226.663 445.833 226.948C445.66 227.233 445.441 227.497 445.177 227.74C444.92 227.976 444.604 228.17 444.229 228.323C443.854 228.469 443.399 228.542 442.865 228.542C442.17 228.542 441.531 228.399 440.948 228.115C440.372 227.83 439.91 227.434 439.563 226.927C439.215 226.413 439.042 225.823 439.042 225.156C439.042 224.573 439.146 224.052 439.354 223.594C439.569 223.135 439.892 222.747 440.323 222.427C440.753 222.108 441.302 221.865 441.969 221.698C442.635 221.531 443.42 221.448 444.323 221.448H445.833ZM454.781 225.927L457 217.062H460.698L457.01 228.333H454.823L454.781 225.927ZM453.469 217.062L455.656 225.927L455.635 228.333H453.437L449.76 217.062H453.469ZM467.052 228.542C466.135 228.542 465.316 228.399 464.594 228.115C463.872 227.823 463.26 227.424 462.76 226.917C462.267 226.41 461.889 225.826 461.625 225.167C461.368 224.507 461.24 223.809 461.24 223.073V222.677C461.24 221.851 461.354 221.087 461.583 220.385C461.812 219.677 462.153 219.059 462.604 218.531C463.056 218.003 463.622 217.594 464.302 217.302C464.983 217.003 465.774 216.854 466.677 216.854C467.476 216.854 468.191 216.983 468.823 217.24C469.455 217.497 469.99 217.865 470.427 218.344C470.872 218.823 471.208 219.403 471.437 220.083C471.674 220.764 471.792 221.528 471.792 222.375V223.802H462.583V221.604H468.365V221.333C468.372 220.958 468.306 220.639 468.167 220.375C468.035 220.111 467.84 219.91 467.583 219.771C467.326 219.632 467.014 219.562 466.646 219.562C466.264 219.562 465.948 219.646 465.698 219.812C465.455 219.979 465.264 220.208 465.125 220.5C464.993 220.785 464.899 221.115 464.844 221.49C464.788 221.865 464.76 222.26 464.76 222.677V223.073C464.76 223.49 464.816 223.868 464.927 224.208C465.045 224.549 465.212 224.84 465.427 225.083C465.649 225.319 465.913 225.503 466.219 225.635C466.531 225.767 466.885 225.833 467.281 225.833C467.76 225.833 468.233 225.743 468.698 225.562C469.163 225.382 469.562 225.083 469.896 224.667L471.49 226.562C471.26 226.889 470.934 227.205 470.51 227.51C470.094 227.816 469.594 228.066 469.01 228.26C468.427 228.448 467.774 228.542 467.052 228.542ZM476.927 212.333V228.333H473.406V212.333H476.927Z" fill="white"/>
<rect x="571" y="196.333" width="208" height="49.3333" rx="4.66667" fill="#888888" stroke="#888888" stroke-width="4"/>
<path d="M643.26 213.167H646.24L649.625 223.719L653.01 213.167H655.99L650.833 228.333H648.417L643.26 213.167ZM641.448 213.167H644.531L645.104 224.792V228.333H641.448V213.167ZM654.719 213.167H657.812V228.333H654.146V224.792L654.719 213.167ZM663.448 227.01L666.365 217.062H670.135L665.604 230.01C665.507 230.295 665.378 230.601 665.219 230.927C665.059 231.26 664.84 231.576 664.563 231.875C664.285 232.174 663.927 232.417 663.49 232.604C663.059 232.792 662.524 232.885 661.885 232.885C661.545 232.885 661.295 232.868 661.135 232.833C660.983 232.806 660.747 232.753 660.427 232.677V230.167C660.517 230.167 660.594 230.167 660.656 230.167C660.726 230.167 660.802 230.167 660.885 230.167C661.26 230.167 661.559 230.128 661.781 230.052C662.01 229.976 662.184 229.865 662.302 229.719C662.427 229.573 662.524 229.396 662.594 229.187L663.448 227.01ZM662.708 217.062L664.927 224.948L665.313 228.667H662.958L658.948 217.062H662.708ZM679.031 224.302C679.031 224.066 678.997 223.854 678.927 223.667C678.858 223.472 678.729 223.292 678.542 223.125C678.354 222.958 678.083 222.792 677.729 222.625C677.382 222.451 676.924 222.271 676.354 222.083C675.688 221.861 675.045 221.611 674.427 221.333C673.809 221.049 673.257 220.719 672.771 220.344C672.285 219.962 671.899 219.517 671.615 219.01C671.33 218.497 671.188 217.899 671.188 217.219C671.188 216.566 671.333 215.979 671.625 215.458C671.917 214.931 672.323 214.483 672.844 214.115C673.372 213.74 673.99 213.455 674.698 213.26C675.406 213.059 676.181 212.958 677.021 212.958C678.132 212.958 679.111 213.153 679.958 213.542C680.813 213.924 681.479 214.469 681.958 215.177C682.444 215.878 682.688 216.708 682.688 217.667H679.052C679.052 217.285 678.972 216.948 678.813 216.656C678.66 216.365 678.427 216.135 678.115 215.969C677.802 215.802 677.41 215.719 676.938 215.719C676.479 215.719 676.094 215.788 675.781 215.927C675.469 216.066 675.233 216.253 675.073 216.49C674.913 216.719 674.833 216.972 674.833 217.25C674.833 217.479 674.896 217.687 675.021 217.875C675.153 218.056 675.337 218.226 675.573 218.385C675.816 218.545 676.108 218.698 676.448 218.844C676.795 218.99 677.184 219.132 677.615 219.271C678.42 219.528 679.135 219.816 679.76 220.135C680.392 220.448 680.924 220.806 681.354 221.208C681.792 221.604 682.122 222.056 682.344 222.562C682.573 223.069 682.688 223.642 682.688 224.281C682.688 224.962 682.556 225.566 682.292 226.094C682.028 226.622 681.649 227.069 681.156 227.437C680.663 227.799 680.073 228.073 679.385 228.26C678.698 228.448 677.931 228.542 677.083 228.542C676.306 228.542 675.538 228.444 674.781 228.25C674.031 228.049 673.351 227.743 672.74 227.333C672.128 226.917 671.639 226.385 671.271 225.74C670.91 225.087 670.729 224.312 670.729 223.417H674.396C674.396 223.861 674.455 224.236 674.573 224.542C674.691 224.847 674.865 225.094 675.094 225.281C675.323 225.462 675.604 225.594 675.938 225.677C676.271 225.753 676.653 225.792 677.083 225.792C677.549 225.792 677.924 225.726 678.208 225.594C678.493 225.455 678.701 225.274 678.833 225.052C678.965 224.823 679.031 224.573 679.031 224.302ZM693.031 225.833L697.26 229.187L694.99 231.104L690.833 227.75L693.031 225.833ZM697.437 220.448V221.062C697.437 222.222 697.274 223.264 696.948 224.187C696.628 225.104 696.17 225.889 695.573 226.542C694.983 227.187 694.285 227.684 693.479 228.031C692.674 228.372 691.785 228.542 690.812 228.542C689.833 228.542 688.937 228.372 688.125 228.031C687.319 227.684 686.618 227.187 686.021 226.542C685.431 225.889 684.972 225.104 684.646 224.187C684.326 223.264 684.167 222.222 684.167 221.062V220.448C684.167 219.288 684.326 218.247 684.646 217.323C684.972 216.399 685.427 215.615 686.01 214.969C686.601 214.316 687.299 213.819 688.104 213.479C688.917 213.132 689.812 212.958 690.792 212.958C691.764 212.958 692.653 213.132 693.458 213.479C694.271 213.819 694.972 214.316 695.562 214.969C696.16 215.615 696.622 216.399 696.948 217.323C697.274 218.247 697.437 219.288 697.437 220.448ZM693.719 221.062V220.427C693.719 219.677 693.653 219.017 693.521 218.448C693.396 217.872 693.208 217.389 692.958 217C692.708 216.611 692.399 216.319 692.031 216.125C691.67 215.924 691.257 215.823 690.792 215.823C690.306 215.823 689.882 215.924 689.521 216.125C689.16 216.319 688.858 216.611 688.615 217C688.372 217.389 688.187 217.872 688.062 218.448C687.944 219.017 687.885 219.677 687.885 220.427V221.062C687.885 221.806 687.944 222.465 688.062 223.042C688.187 223.611 688.372 224.094 688.615 224.49C688.865 224.885 689.17 225.184 689.531 225.385C689.899 225.587 690.326 225.687 690.812 225.687C691.278 225.687 691.691 225.587 692.052 225.385C692.413 225.184 692.715 224.885 692.958 224.49C693.208 224.094 693.396 223.611 693.521 223.042C693.653 222.465 693.719 221.806 693.719 221.062ZM709.323 225.521V228.333H701.656V225.521H709.323ZM702.958 213.167V228.333H699.302V213.167H702.958Z" fill="white"/>
</svg>
